<svg width="47" height="43" viewBox="0 0 47 43" fill="none" xmlns="http://www.w3.org/2000/svg">
<mask id="mask0_106_480" style="mask-type:alpha" maskUnits="userSpaceOnUse" x="0" y="0" width="47" height="43">
<rect width="47" height="43" fill="#D9D9D9" fill-opacity="0.47"/>
</mask>
<g mask="url(#mask0_106_480)">
<path d="M7.7041 9L23.7933 22.6295L39.8842 9H7.7041Z" fill="#666699"/>
<path d="M24.5664 25.0513C24.5613 25.0565 24.5527 25.0583 24.5475 25.0617C24.4494 25.1418 24.3409 25.2028 24.2273 25.2463C24.2032 25.2568 24.1791 25.2637 24.1533 25.2707C24.0379 25.3073 23.9174 25.3334 23.7969 25.3334H23.7952H23.7935C23.673 25.3334 23.5525 25.3073 23.4371 25.2707C23.4113 25.262 23.3872 25.255 23.3631 25.2463C23.2495 25.2011 23.141 25.1418 23.0429 25.0617C23.0377 25.0565 23.0291 25.0548 23.024 25.0513L6 10.6295V33.2478H41.5921V10.6295L24.5664 25.0513Z" fill="#666699"/>
</g>
</svg>
